<?xml version="1.0" standalone="no"?>
<!DOCTYPE svg PUBLIC "-//W3C//DTD SVG 20010904//EN"
 "http://www.w3.org/TR/2001/REC-SVG-20010904/DTD/svg10.dtd">
<svg version="1.0" xmlns="http://www.w3.org/2000/svg"
 width="300.000000pt" height="168.000000pt" viewBox="0 0 300.000000 168.000000"
 preserveAspectRatio="xMidYMid meet">

<g transform="translate(0.000000,168.000000) scale(0.100000,-0.100000)"
fill="#000000" stroke="none">
<path d="M0 1035 c0 -514 3 -645 13 -639 9 6 9 4 -1 -8 -16 -20 -15 -219 2
-231 8 -6 8 -10 -1 -14 -9 -3 -13 -28 -13 -74 l0 -69 1500 0 1500 0 0 840 0
840 -475 0 c-407 0 -475 -2 -475 -14 0 -8 4 -18 10 -21 5 -3 9 -22 8 -41 -1
-30 -4 -35 -21 -30 -15 4 -17 2 -8 -7 6 -6 11 -20 11 -32 0 -17 -5 -15 -30 15
-24 29 -28 31 -23 12 4 -18 2 -21 -13 -16 -15 5 -16 4 -4 -4 8 -6 17 -9 21 -6
4 2 10 0 14 -6 8 -13 62 -37 102 -45 18 -4 36 -11 39 -17 5 -7 -3 -9 -22 -4
l-29 6 24 -20 c13 -11 18 -20 12 -20 -6 0 -20 9 -30 19 -11 11 -21 17 -24 15
-6 -6 -57 17 -57 27 0 4 -7 10 -16 13 -11 4 -15 2 -11 -8 4 -10 1 -13 -9 -9
-7 3 -14 10 -14 15 0 7 -17 8 -45 5 -25 -4 -47 -2 -50 3 -4 6 -11 8 -16 4 -5
-3 -8 -2 -7 3 2 4 -1 8 -7 8 -5 0 -9 -4 -7 -8 1 -5 -2 -6 -8 -2 -6 3 -8 11 -5
16 4 5 2 9 -4 9 -5 0 -13 -5 -16 -10 -4 -7 -11 -8 -18 -1 -14 11 -88 11 -81 0
2 -4 -2 -14 -10 -22 -8 -8 -12 -17 -9 -21 4 -3 2 -6 -4 -6 -5 0 -20 -9 -33
-20 -13 -11 -27 -20 -31 -20 -10 0 27 64 47 80 7 7 14 19 14 27 0 8 5 11 10 8
6 -4 9 -1 8 7 -2 8 6 13 18 12 14 0 27 11 39 32 20 37 36 43 125 45 l65 2 -55
10 c-33 6 -422 11 -977 14 l-923 3 0 -645z m1417 608 c-4 -3 -2 -12 4 -20 9
-9 8 -13 0 -13 -6 0 -11 5 -11 10 0 7 -6 7 -20 0 -11 -6 -20 -7 -20 -3 0 5 10
13 23 19 28 14 32 16 24 7z m-350 -125 c-3 -8 -6 -5 -6 6 -1 11 2 17 5 13 3
-3 4 -12 1 -19z m1013 7 c0 -8 -4 -15 -10 -15 -5 0 -7 7 -4 15 4 8 8 15 10 15
2 0 4 -7 4 -15z m-990 -125 c0 -4 14 -5 30 -2 25 3 30 9 30 31 l1 26 15 -25
c14 -24 15 -22 9 33 -6 68 7 69 24 1 10 -39 14 -44 26 -34 12 10 15 9 15 -4 0
-9 -5 -25 -12 -36 -7 -10 -9 -23 -5 -27 5 -4 12 -1 16 6 5 7 14 10 20 7 6 -4
9 -10 7 -14 -7 -12 41 -227 50 -227 5 1 10 23 12 50 1 31 -1 45 -6 37 -6 -8
-9 4 -10 35 0 62 15 37 30 -47 10 -60 31 -96 49 -85 5 4 9 17 9 31 0 38 17 19
25 -27 8 -47 41 -69 63 -41 11 14 12 14 12 -1 0 -9 9 -26 20 -37 11 -11 20
-27 20 -35 0 -8 6 -12 14 -9 7 3 16 -2 19 -10 5 -13 -1 -16 -27 -16 -32 0 -34
2 -44 48 l-10 47 -1 -42 c-1 -36 -4 -43 -21 -43 -11 0 -20 5 -20 10 0 6 7 10
15 10 8 0 15 7 15 15 0 8 -9 15 -19 15 -11 0 -23 9 -26 20 -9 29 -24 25 -20
-6 2 -18 -1 -22 -8 -15 -15 15 -27 14 -27 -4 0 -8 6 -15 14 -15 8 0 16 -7 20
-15 4 -10 -1 -15 -15 -15 -12 0 -17 -4 -14 -11 4 -6 13 -8 21 -5 8 3 14 -1 14
-9 0 -8 -4 -15 -10 -15 -5 0 -10 -5 -10 -11 0 -6 7 -9 15 -5 12 4 14 -2 11
-27 -3 -18 -5 -38 -5 -44 -1 -7 -10 -13 -20 -13 -14 0 -18 5 -14 19 3 12 -6
30 -25 49 -32 33 -54 75 -28 53 8 -7 21 -9 28 -5 10 6 10 5 2 -7 -9 -11 -9
-17 1 -26 11 -10 13 -4 8 35 -2 26 -9 52 -14 59 -6 6 -7 24 -4 40 5 24 3 22
-14 -11 -26 -50 -29 -52 -29 -24 1 42 -25 143 -39 151 -7 4 -13 15 -13 24 0
14 2 14 15 -3 13 -16 14 -16 10 -1 -14 49 -16 52 -24 38 -5 -8 -11 12 -16 51
-7 55 -9 59 -15 33 -6 -24 -8 -25 -9 -7 0 12 -6 22 -12 22 -7 0 -8 -12 -4 -32
l6 -33 -16 34 c-8 18 -15 40 -15 48 0 8 -4 11 -10 8 -5 -3 -10 -16 -10 -28 -1
-21 -1 -21 -14 -4 -14 17 -15 17 -22 -5 -7 -22 -8 -22 -21 10 -7 17 -18 32
-24 32 -6 0 -9 6 -6 14 3 7 1 18 -5 24 -10 10 -48 108 -48 122 1 7 70 -122 70
-130z m671 103 c-5 -10 -21 -29 -35 -42 -23 -22 -26 -23 -26 -6 0 22 38 65 57
65 10 0 11 -5 4 -17z m79 -13 c13 -8 13 -10 -2 -10 -17 0 -78 -55 -78 -71 0
-5 -7 -9 -15 -9 -21 0 -2 45 32 75 31 27 41 29 63 15z m-803 -103 c6 2 15 -1
19 -8 5 -9 2 -10 -10 -6 -15 6 -17 4 -10 -10 8 -18 8 -36 1 -105 -3 -35 -17
-66 -17 -39 0 7 -4 9 -10 6 -6 -4 -7 1 -3 11 4 12 3 15 -5 10 -8 -5 -10 -2 -5
9 5 14 8 14 15 3 7 -9 8 -7 5 10 -3 14 -1 20 6 15 7 -4 8 0 2 13 -5 10 -8 33
-7 49 1 20 -1 25 -7 17 -5 -9 -8 -4 -7 15 0 15 -3 39 -7 53 -4 14 1 9 11 -11
9 -20 22 -34 29 -32z m998 53 c0 -1 12 -3 26 -4 42 -4 51 -14 29 -36 -11 -11
-26 -20 -32 -20 -9 0 -8 -3 2 -10 8 -5 11 -12 7 -16 -4 -4 -16 1 -26 10 -11
10 -24 15 -29 12 -5 -3 -15 0 -21 8 -7 8 -27 17 -45 20 -18 3 -33 12 -33 20 0
7 8 11 16 9 9 -2 27 0 41 5 21 8 65 9 65 2z m-1158 -26 c-3 -3 -12 -4 -19 -1
-8 3 -5 6 6 6 11 1 17 -2 13 -5z m1943 -4 c0 -5 -4 -10 -10 -10 -5 0 -10 5
-10 10 0 6 5 10 10 10 6 0 10 -4 10 -10z m-1220 -11 c0 -6 -5 -19 -10 -30 -7
-13 -7 -19 0 -19 5 0 10 -4 10 -8 0 -12 -61 -82 -71 -82 -20 0 -7 62 22 104
29 44 49 58 49 35z m686 -1 c3 -4 -1 -5 -10 -4 -8 1 -18 5 -22 8 -3 4 1 5 10
4 8 -1 18 -5 22 -8z m-6 -28 c0 -5 -4 -10 -10 -10 -5 0 -10 5 -10 10 0 6 5 10
10 10 6 0 10 -4 10 -10z m-1191 -67 c6 -32 13 -71 16 -88 3 -16 -4 -5 -16 25
-25 65 -35 120 -21 120 5 0 15 -26 21 -57z m835 48 c3 -5 -9 -19 -27 -31 -17
-12 -24 -19 -14 -16 26 8 20 -2 -10 -18 -16 -8 -56 -37 -91 -65 -64 -52 -85
-60 -98 -39 -4 7 -3 8 4 4 7 -4 12 -3 12 2 0 12 65 107 91 133 10 10 28 20 39
22 11 2 23 6 26 10 10 10 62 9 68 -2z m216 -37 c0 -10 -20 -3 -41 16 l-24 20
33 -16 c17 -8 32 -17 32 -20z m293 -18 c54 -38 69 -56 47 -56 -5 0 -10 5 -10
12 0 6 -3 8 -7 5 -3 -4 -13 2 -20 13 -8 11 -20 20 -26 19 -31 -4 -44 3 -54 31
-13 35 -15 35 70 -24z m-1439 -2 c4 -10 2 -13 -6 -8 -8 5 -9 1 -4 -12 5 -14 4
-16 -4 -8 -6 6 -8 18 -4 27 8 21 10 21 18 1z m1614 6 c36 0 51 -4 50 -12 -2
-9 13 -14 45 -16 41 -3 47 -5 37 -18 -15 -17 -34 -19 -24 -3 5 8 -3 10 -27 6
-19 -4 -60 -7 -92 -8 -48 -2 -57 -5 -52 -18 3 -9 -4 -5 -15 8 -11 13 -20 19
-20 15 0 -5 -7 2 -16 14 -8 12 -21 22 -29 22 -8 0 -17 5 -21 11 -4 8 11 9 52
5 33 -3 83 -5 112 -6z m-1371 -32 c-3 -8 -6 -5 -6 6 -1 11 2 17 5 13 3 -3 4
-12 1 -19z m979 -13 c18 -13 18 -14 -4 -8 -12 3 -25 9 -28 14 -8 14 10 11 32
-6z m38 -1 c5 -14 4 -15 -9 -4 -17 14 -19 20 -6 20 5 0 12 -7 15 -16z m147 -1
c12 -14 12 -16 0 -8 -11 6 -13 4 -8 -8 7 -19 -8 -33 -18 -17 -4 6 -2 17 4 24
6 7 8 16 4 19 -3 4 -4 7 -1 7 3 0 12 -8 19 -17z m-1184 -25 c-3 -7 -5 -2 -5
12 0 14 2 19 5 13 2 -7 2 -19 0 -25z m-183 -45 c-10 -15 -12 -23 -4 -16 10 10
16 9 24 -3 7 -8 24 -17 40 -18 23 -3 27 0 23 15 -5 17 -3 17 18 3 18 -12 24
-12 29 -2 3 7 3 1 0 -13 -3 -16 0 -32 10 -41 11 -12 12 -18 3 -28 -10 -10 -8
-12 5 -7 17 6 33 -17 22 -34 -3 -5 -24 -9 -47 -10 -23 0 -36 -3 -29 -6 6 -2
10 -9 6 -14 -3 -5 6 -9 20 -9 36 0 32 -16 -5 -24 -43 -8 -31 -30 19 -34 34 -3
45 1 63 22 21 25 46 27 33 3 -5 -8 -3 -8 7 1 16 15 29 16 29 0 0 -6 -3 -9 -6
-6 -3 3 -19 -7 -35 -23 -34 -33 -40 -53 -6 -21 27 26 41 19 25 -12 -9 -17 -8
-19 3 -8 7 6 20 12 29 12 10 0 7 -6 -10 -20 -14 -11 -29 -15 -34 -10 -11 11
-38 1 -30 -11 3 -5 0 -9 -6 -9 -6 0 -8 -5 -5 -10 4 -6 16 -8 28 -5 12 2 16 2
9 -1 -6 -3 -9 -11 -6 -16 4 -6 2 -8 -3 -5 -6 4 -13 0 -16 -7 -3 -8 -1 -17 6
-20 7 -2 0 -5 -15 -5 -25 -1 -42 -21 -18 -21 6 0 10 -7 10 -15 0 -12 7 -14 28
-9 34 9 41 14 17 14 -15 0 -16 3 -7 12 9 9 16 7 32 -7 11 -10 20 -24 20 -31 0
-7 7 -17 16 -22 13 -7 14 -15 6 -46 l-11 -37 57 6 c31 3 65 8 76 11 12 4 16 2
12 -5 -4 -6 -13 -11 -21 -11 -8 0 -14 -8 -14 -17 1 -10 -3 -29 -7 -42 -6 -21
-5 -23 15 -18 22 5 47 -23 33 -38 -4 -5 -1 -5 6 -1 7 5 11 15 8 23 -3 8 -2 12
3 9 5 -3 14 1 21 9 10 12 9 15 -6 15 -11 0 -26 5 -34 10 -11 7 -6 13 25 26 32
13 36 18 22 23 -28 10 -25 23 6 27 15 1 27 -2 27 -8 0 -6 8 -7 18 -3 14 5 15
4 4 -7 -10 -10 -7 -15 20 -25 31 -11 31 -12 11 -18 -30 -9 -84 -172 -62 -186
23 -14 45 -10 64 11 25 27 35 25 35 -6 l0 -27 30 32 c17 17 32 31 34 31 3 0 6
-12 8 -27 l3 -28 27 39 27 39 3 -39 c4 -39 4 -39 15 -12 13 29 41 53 30 25 -4
-10 -10 -24 -13 -32 -3 -8 -2 -15 4 -15 5 0 15 13 22 30 7 16 17 30 22 30 5 0
4 -9 -2 -21 -17 -32 -5 -34 19 -3 12 15 24 24 28 21 3 -4 0 -13 -6 -21 -9 -11
-9 -16 0 -21 6 -4 15 -1 20 6 19 28 25 34 48 54 26 21 23 12 -11 -37 -21 -30
-18 -34 14 -17 15 8 19 8 14 0 -8 -12 6 -15 18 -4 10 11 37 12 30 2 -8 -14 40
-11 55 4 11 9 13 9 7 0 -4 -7 -3 -13 2 -13 6 0 12 7 16 15 4 12 19 13 79 9 48
-4 82 -2 96 5 11 7 21 8 21 3 0 -10 55 -7 80 5 8 3 22 5 31 4 9 -1 19 5 22 14
4 8 15 15 25 15 10 0 23 5 30 12 9 9 12 9 12 0 0 -7 -6 -12 -12 -12 -9 0 -8
-4 2 -11 12 -9 11 -10 -7 -6 -13 3 -26 1 -29 -4 -3 -5 16 -9 43 -8 36 0 43 3
28 9 -19 8 -19 9 2 9 12 1 25 6 28 11 8 13 25 13 25 -1 0 -5 -4 -7 -10 -4 -5
3 -10 1 -10 -4 0 -6 5 -12 10 -12 6 -1 15 -2 20 -3 22 -2 10 -21 -19 -30 l-30
-9 22 -18 22 -18 -45 -1 c-25 -1 -39 -4 -32 -7 20 -8 14 -33 -11 -44 -27 -12
-31 -39 -9 -55 13 -9 12 -14 -3 -37 l-17 -27 -22 23 c-12 13 -28 21 -36 19 -8
-3 -12 -1 -8 3 4 4 -5 17 -19 29 -29 25 -26 56 5 56 10 0 27 10 38 21 l19 22
-120 -7 c-75 -4 -122 -12 -127 -19 -4 -7 -36 -13 -75 -14 -37 -2 -77 -3 -88
-4 -11 0 -43 0 -72 1 -51 3 -92 -17 -75 -35 4 -4 -4 -4 -18 1 -14 4 -35 8 -47
9 -11 0 -19 3 -16 8 8 12 -22 8 -43 -7 -18 -14 -18 -15 9 -25 16 -6 52 -11 80
-11 29 -1 71 -5 94 -9 24 -5 40 -4 37 0 -3 5 6 9 20 9 14 0 28 4 31 10 7 12
25 13 25 3 -1 -17 -86 -46 -128 -44 -25 1 -41 -2 -38 -7 4 -6 -7 -7 -27 -3
-17 4 -43 4 -57 0 -19 -5 -20 -7 -6 -8 39 -2 3 -16 -41 -16 -54 0 -69 -20 -21
-28 18 -3 52 -9 76 -13 36 -6 48 -3 72 15 36 26 64 28 33 2 -12 -10 -19 -22
-15 -26 4 -3 3 -6 -3 -5 -21 5 -36 0 -30 -10 3 -5 0 -7 -8 -5 -7 3 -23 2 -35
-2 -22 -8 -22 -9 -2 -26 11 -9 20 -13 20 -8 0 5 9 7 20 4 11 -3 20 0 20 6 0 6
4 11 9 11 5 0 7 -9 4 -20 -7 -28 -62 -35 -152 -21 -42 6 -88 12 -103 13 -19 2
-25 7 -23 20 3 13 -2 18 -21 18 -13 0 -24 5 -24 12 0 6 -3 9 -6 6 -3 -4 -19
-2 -35 2 -35 10 -36 4 -7 -27 17 -19 19 -23 5 -17 -9 3 -17 10 -17 15 0 5 -4
9 -10 9 -22 0 5 -31 31 -37 16 -3 32 -10 35 -14 8 -14 -12 -10 -58 10 -24 11
-58 25 -77 32 -19 7 -29 15 -23 17 24 8 11 22 -15 16 -22 -4 -25 -3 -13 5 12
9 9 10 -12 5 -31 -7 -71 3 -63 17 8 13 -32 11 -57 -2 -16 -9 -19 -8 -13 2 6 9
3 11 -11 6 -15 -6 -14 -3 5 13 16 14 27 17 36 10 8 -7 12 -6 12 3 0 9 -14 13
-39 13 -21 0 -38 -4 -38 -9 0 -4 -4 -5 -10 -2 -5 3 -10 1 -10 -4 0 -6 -7 -11
-15 -11 -22 0 -7 27 18 34 16 4 19 8 9 14 -7 5 -10 15 -7 24 7 17 -148 162
-160 150 -5 -4 -5 -2 -1 5 3 6 2 14 -4 18 -18 11 -11 53 10 60 28 9 25 29 -6
50 -19 12 -23 19 -14 25 9 6 9 9 0 15 -8 5 -7 12 5 25 9 10 13 24 9 35 -5 13
-4 16 4 11 8 -5 10 -2 6 9 -4 8 -1 22 6 30 19 23 3 18 -22 -7 -22 -22 -22 -22
-28 -3 -3 12 -14 20 -28 21 -12 0 -21 -4 -19 -10 2 -6 10 -11 17 -11 7 0 16
-7 18 -15 4 -11 -1 -10 -23 4 -23 15 -29 16 -36 5 -5 -8 -9 -20 -9 -26 0 -7
-6 -13 -12 -14 -9 0 -9 -2 1 -6 11 -5 11 -7 0 -14 -12 -7 -11 -9 1 -9 13 0 13
-1 0 -10 -12 -7 -10 -11 10 -19 14 -5 19 -10 11 -10 -8 -1 -23 7 -34 17 -11 9
-17 11 -13 5 4 -7 2 -13 -3 -13 -6 0 -11 -7 -11 -15 0 -10 10 -15 30 -15 18 0
33 -6 36 -15 4 -8 16 -15 27 -15 20 0 20 0 1 15 -16 12 -17 14 -2 15 9 0 23
-7 32 -15 8 -8 21 -16 28 -16 7 -1 -3 -5 -22 -9 -38 -7 -197 -3 -212 6 -12 8
41 64 59 64 8 0 11 5 8 10 -8 13 14 42 26 34 5 -3 6 1 3 9 -3 8 2 22 11 31 9
9 14 16 11 16 -3 0 11 16 31 36 23 22 29 32 16 25 -12 -6 -25 -16 -28 -21 -3
-6 -12 -10 -18 -10 -8 0 -7 3 2 9 7 5 11 13 7 19 -6 9 39 28 58 23 5 -1 6 8 3
20 -3 12 -2 31 4 41 11 21 -1 24 -20 6 -8 -8 -7 -1 3 20 10 20 24 32 36 32 11
0 20 4 20 9 0 6 21 13 47 17 43 6 46 8 25 17 -21 10 -54 5 -131 -19 -18 -5
-22 -4 -17 5 5 7 10 10 13 7 3 -3 14 4 26 14 11 11 47 25 81 33 l61 14 -38 7
c-43 8 -127 -13 -199 -50 -49 -26 -66 -18 -25 11 34 24 222 95 252 95 17 0 24
4 19 11 -4 7 -21 9 -45 5 -38 -6 -65 -16 -166 -62 -28 -13 -53 -20 -56 -16 -2
4 -2 2 -1 -5 3 -14 -14 -28 -43 -36 -27 -6 -30 8 -5 22 22 13 11 14 -23 1 -23
-9 -26 -8 -21 5 3 10 0 15 -11 15 -49 0 111 96 190 114 21 5 27 11 23 23 -6
14 -4 14 11 2 14 -12 16 -12 11 1 -18 44 -17 51 2 20 14 -25 20 -29 18 -14 -3
21 21 78 29 70 3 -2 -3 -17 -13 -33z m1686 33 c0 -3 -4 -8 -10 -11 -5 -3 -10
-1 -10 4 0 6 5 11 10 11 6 0 10 -2 10 -4z m-1712 -31 c-3 -3 -9 2 -12 12 -6
14 -5 15 5 6 7 -7 10 -15 7 -18z m1334 -5 c6 0 8 -3 5 -6 -10 -11 -38 17 -30
30 5 7 9 5 11 -6 2 -10 8 -18 14 -18z m573 20 c-3 -5 -14 -10 -23 -9 -14 0
-13 2 3 9 27 11 27 11 20 0z m-761 -9 c3 -4 -5 -18 -19 -31 -23 -22 -24 -22
-18 -1 3 11 12 21 20 21 8 0 11 5 8 10 -3 6 -4 10 -1 10 3 0 7 -4 10 -9z m96
-13 c0 -16 -3 -19 -11 -11 -6 6 -8 16 -5 22 11 17 16 13 16 -11z m535 12 c17
-7 24 -7 20 0 -9 15 8 12 31 -5 17 -13 17 -15 2 -16 -95 -8 -152 -4 -142 12 3
5 8 8 12 5 4 -2 16 0 27 5 11 4 21 8 22 8 1 1 13 -3 28 -9z m-229 -33 c4 -4
15 -7 25 -7 9 0 19 -9 22 -21 4 -16 3 -18 -9 -8 -8 6 -14 8 -14 3 -1 -5 -10 2
-20 15 -11 13 -20 18 -20 11 0 -9 -4 -10 -13 -2 -21 18 -39 -20 -22 -45 12
-16 11 -19 -7 -19 -14 0 -18 5 -15 18 3 10 0 18 -6 18 -7 0 -3 7 7 15 11 8 16
15 10 15 -5 0 -2 5 6 10 16 10 45 8 56 -3z m-102 -13 c9 -22 -3 -32 -14 -14
-12 19 -12 30 -1 30 5 0 12 -7 15 -16z m26 12 c0 -3 -4 -8 -10 -11 -5 -3 -10
-1 -10 4 0 6 5 11 10 11 6 0 10 -2 10 -4z m-289 -37 c-13 -10 -28 -19 -35 -19
-6 1 2 12 19 25 16 13 32 22 35 19 3 -3 -6 -14 -19 -25z m159 11 c0 -5 -5 -10
-11 -10 -5 0 -7 5 -4 10 3 6 8 10 11 10 2 0 4 -4 4 -10z m-110 -9 c0 -12 -42
-42 -49 -36 -5 6 29 45 41 45 4 0 8 -4 8 -9z m20 -36 c-7 -8 -20 -15 -29 -15
-13 1 -13 3 3 15 26 19 42 19 26 0z m387 -10 c2 -5 -14 -10 -36 -11 -30 0 -36
3 -27 13 12 15 58 13 63 -2z m-357 -10 c0 -2 -10 -9 -22 -15 -22 -11 -22 -10
-4 4 21 17 26 19 26 11z m16 -23 c-18 -16 -18 -16 -6 6 6 13 14 21 18 18 3 -4
-2 -14 -12 -24z m-693 -17 c-7 -21 -13 -19 -13 6 0 11 4 18 10 14 5 -3 7 -12
3 -20z m844 3 c-3 -8 -6 -5 -6 6 -1 11 2 17 5 13 3 -3 4 -12 1 -19z m87 7 c3
-8 1 -15 -4 -15 -5 0 -7 -7 -4 -15 4 -8 10 -13 14 -10 4 3 13 -9 19 -26 6 -17
20 -33 31 -36 11 -3 20 -10 20 -15 0 -6 9 -8 19 -5 13 3 18 0 16 -12 -1 -10
-10 -15 -21 -13 -23 4 -85 68 -76 78 4 3 -3 2 -15 -5 -12 -6 -26 -11 -32 -11
-9 0 -41 55 -41 72 0 9 22 7 30 -4 3 -4 12 -3 20 3 13 8 13 10 0 19 -13 8 -13
10 1 10 9 0 19 -7 23 -15z m315 -75 c0 -9 -9 -4 -24 14 -13 17 -21 34 -18 39
7 12 43 -32 42 -53z m-1509 34 c0 -8 -4 -12 -10 -9 -5 3 -10 10 -10 16 0 5 5
9 10 9 6 0 10 -7 10 -16z m1389 13 c-2 -1 -13 -9 -24 -17 -19 -14 -19 -14 -6
3 7 9 18 17 24 17 6 0 8 -1 6 -3z m-1514 -17 c-3 -5 -10 -10 -16 -10 -5 0 -9
5 -9 10 0 6 7 10 16 10 8 0 12 -4 9 -10z m1245 -10 c0 -5 -5 -10 -11 -10 -5 0
-7 5 -4 10 3 6 8 10 11 10 2 0 4 -4 4 -10z m-980 -20 c0 -5 -7 -10 -15 -10 -8
0 -15 5 -15 10 0 6 7 10 15 10 8 0 15 -4 15 -10z m276 -53 c1 -34 -1 -45 -7
-32 -10 26 -11 85 -1 85 4 0 7 -24 8 -53z m-319 6 c-3 -10 -5 -4 -5 12 0 17 2
24 5 18 2 -7 2 -21 0 -30z m1227 29 c2 -4 -4 -8 -14 -8 -10 0 -16 4 -14 8 3 4
9 8 14 8 5 0 11 -4 14 -8z m-984 -45 c0 -8 -3 -7 -9 2 -5 7 -14 11 -19 7 -6
-4 -16 2 -21 13 -10 19 -10 19 19 4 17 -8 30 -20 30 -26z m100 8 c0 -5 -5 -3
-10 5 -5 8 -10 20 -10 25 0 6 5 3 10 -5 5 -8 10 -19 10 -25z m-290 3 c0 -11
-7 -16 -20 -15 -12 1 -20 8 -20 19 0 11 7 16 20 15 12 -1 20 -8 20 -19z m98 2
c7 0 11 -4 8 -8 -7 -12 -66 -2 -66 10 0 6 10 8 23 4 12 -3 28 -6 35 -6z m342
-5 c0 -8 -4 -15 -10 -15 -5 0 -10 7 -10 15 0 8 5 15 10 15 6 0 10 -7 10 -15z
m-570 -57 c0 -4 -11 -15 -25 -26 -13 -11 -21 -23 -17 -27 6 -7 -38 3 -46 10
-2 2 1 13 8 24 7 14 7 21 0 21 -18 0 -11 17 13 27 16 8 27 6 44 -6 12 -9 23
-19 23 -23z m370 7 c39 -37 31 -44 -13 -11 -19 14 -41 26 -50 26 -10 0 -17 4
-17 8 0 18 53 3 80 -23z m79 -25 c0 -8 -6 0 -14 19 -8 18 -15 36 -15 40 1 13
29 -45 29 -59z m-280 -9 c1 -37 -8 -20 -14 25 -3 28 -2 34 4 19 5 -11 10 -31
10 -44z m-39 39 c0 -5 -7 -10 -15 -10 -8 0 -15 5 -15 10 0 6 7 10 15 10 8 0
15 -4 15 -10z m114 -22 c-4 -5 -17 -8 -30 -5 -19 3 -24 0 -25 -17 -1 -15 -3
-12 -8 9 -4 17 -3 33 3 36 13 10 67 -11 60 -23z m522 17 c-3 -9 0 -15 10 -15
8 0 13 4 10 9 -5 8 54 23 62 16 2 -2 -16 -12 -41 -23 -55 -24 -65 -39 -26 -36
16 1 32 -2 35 -8 8 -12 4 -16 -28 -22 -27 -4 -65 23 -51 37 3 4 -1 7 -10 7
-21 0 -31 -18 -18 -34 11 -13 -3 -36 -23 -36 -6 0 -4 5 4 10 11 7 11 10 2 10
-7 0 -10 5 -7 10 7 12 3 12 -19 4 -12 -5 -14 -10 -6 -19 9 -10 7 -13 -7 -11
-37 6 -25 34 24 60 26 13 57 31 68 40 25 19 29 20 21 1z m574 -10 c0 5 8 -2
17 -15 10 -14 17 -29 15 -33 -1 -5 2 -6 7 -2 6 3 25 -1 43 -10 l33 -15 -40 6
c-64 8 -75 14 -81 40 -3 13 -10 24 -16 24 -5 0 -6 5 -2 11 4 8 9 7 15 -2 5 -8
9 -10 9 -4z m-1010 -47 c0 -11 16 -34 36 -52 30 -28 36 -38 30 -60 -4 -15 -2
-26 4 -26 5 0 10 -7 10 -15 0 -8 -5 -15 -11 -15 -6 0 -8 -8 -5 -17 5 -15 4
-15 -9 1 -12 16 -12 22 -2 28 8 5 4 8 -10 8 -28 0 -29 10 -3 43 l20 25 -22 5
c-12 4 -29 1 -37 -6 -14 -10 -14 -10 -3 5 12 15 11 26 -7 75 -14 39 -15 52 -6
39 8 -11 15 -28 15 -38z m-202 24 c2 -7 -3 -12 -12 -12 -9 0 -16 7 -16 16 0
17 22 14 28 -4z m1289 12 c-3 -3 -12 -4 -19 -1 -8 3 -5 6 6 6 11 1 17 -2 13
-5z m-1398 -33 c9 -6 10 -11 2 -15 -6 -4 -11 -16 -11 -27 0 -28 -17 -23 -24 6
-10 39 4 54 33 36z m56 -11 c3 5 18 10 33 9 29 -1 26 -2 -35 -23 -11 -5 -24
-17 -27 -29 -4 -15 -9 -18 -16 -11 -15 15 11 66 26 53 8 -7 14 -6 19 1z m310
1 c3 -5 2 -12 -3 -15 -5 -3 -9 1 -9 9 0 17 3 19 12 6z m-141 -25 c37 -13 38
-14 18 -25 -12 -6 -21 -15 -20 -19 4 -12 -26 -52 -39 -52 -19 0 -15 37 5 52
20 14 42 45 24 35 -12 -8 -42 2 -42 14 0 12 8 11 54 -5z m-139 -25 c-7 -22
-25 -29 -25 -11 0 12 23 40 28 35 2 -2 1 -13 -3 -24z m565 -22 c0 -5 -10 -9
-21 -9 -18 0 -19 2 -9 15 12 15 30 12 30 -6z m159 -1 c12 -16 11 -17 -20 -6
-29 10 -30 12 -13 18 10 4 19 7 19 6 1 0 7 -9 14 -18z m-694 -6 c-3 -3 -11 0
-18 7 -9 10 -8 11 6 5 10 -3 15 -9 12 -12z m40 -12 c-5 -16 -10 -19 -18 -11
-7 7 -6 15 3 26 17 20 24 13 15 -15z m585 26 c0 -3 -4 -8 -10 -11 -5 -3 -10
-1 -10 4 0 6 5 11 10 11 6 0 10 -2 10 -4z m-216 -31 c-28 -26 -46 -27 -26 -2
7 8 9 17 5 20 -3 4 6 7 21 7 l27 0 -27 -25z m-231 -5 c-15 -14 -56 -23 -49
-11 4 6 16 11 27 11 13 0 18 4 13 12 -5 7 -3 8 5 3 7 -4 9 -11 4 -15z m260
-15 c-22 -17 -30 -11 -13 10 7 8 17 12 22 9 5 -3 1 -12 -9 -19z m-13 -29 c0
-2 -7 -7 -16 -10 -8 -3 -12 -2 -9 4 6 10 25 14 25 6z m-219 -52 c6 -8 17 -11
23 -7 7 5 1 -2 -13 -14 -15 -13 -19 -21 -10 -21 38 2 70 -3 65 -10 -6 -10 -42
-9 -53 1 -4 4 -13 -3 -20 -15 l-14 -23 7 25 6 25 -24 -22 c-27 -26 -48 -30
-48 -9 0 7 14 19 30 26 40 17 44 25 13 28 -38 3 -49 13 -29 27 19 15 50 9 67
-11z m220 -20 l-8 -29 -5 27 c-3 16 0 29 6 31 16 6 16 4 7 -29z m-1831 -4 c12
-7 10 -9 -8 -7 -12 0 -22 5 -22 9 0 11 12 10 30 -2z m661 -10 c5 0 9 -5 9 -11
0 -15 -43 -7 -48 10 -3 10 0 12 12 8 10 -4 22 -7 27 -7z m1054 -10 c-3 -5 -11
-10 -16 -10 -6 0 -7 5 -4 10 3 6 11 10 16 10 6 0 7 -4 4 -10z m-1021 -51 c-3
-5 -10 -7 -15 -3 -5 3 -7 10 -3 15 3 5 10 7 15 3 5 -3 7 -10 3 -15z m-578 -4
c-3 -9 0 -15 10 -15 8 0 12 -5 9 -10 -4 -6 -10 -8 -15 -5 -4 3 -6 -4 -3 -15 8
-30 -39 -28 -52 3 -6 12 -17 21 -25 19 -12 -3 -13 -1 -2 10 10 10 14 10 21 0
10 -17 44 -4 37 14 -3 8 1 14 10 14 10 0 14 -6 10 -15z m-166 -9 c0 -3 -4 -8
-10 -11 -5 -3 -10 -1 -10 4 0 6 5 11 10 11 6 0 10 -2 10 -4z m43 -42 c10 -1
17 4 17 13 0 13 3 13 15 3 16 -14 10 -34 -7 -24 -7 5 -8 2 -3 -5 5 -9 10 -10
18 -2 15 15 24 14 31 -5 4 -12 2 -15 -9 -10 -8 3 -15 0 -15 -6 0 -7 -4 -7 -13
1 -8 6 -17 7 -21 3 -4 -4 -7 -2 -6 3 6 26 -2 26 -26 -1 -15 -17 -24 -22 -21
-12 4 10 2 20 -3 23 -5 3 -4 16 2 31 10 22 13 23 18 8 4 -9 14 -18 23 -20z
m184 22 c-4 -9 1 -17 11 -19 9 -3 1 -5 -18 -6 -24 0 -30 2 -21 8 7 5 10 14 7
20 -4 6 0 11 9 11 11 0 15 -5 12 -14z m1725 -8 c-7 -7 -12 -8 -12 -2 0 14 12
26 19 19 2 -3 -1 -11 -7 -17z m93 3 c-3 -6 -11 -11 -17 -11 -6 0 -6 6 2 15 14
17 26 13 15 -4z m-1370 -47 c13 -3 28 -4 32 -1 5 3 15 2 23 -4 11 -6 2 -9 -30
-10 -45 -1 -49 -1 -72 4 -7 1 -12 -4 -10 -12 3 -12 0 -12 -12 -1 -21 17 -21
51 -1 44 8 -4 15 -1 15 6 0 7 6 6 16 -4 8 -9 26 -19 39 -22z m-689 -1 c-7 -7
-26 7 -26 19 0 6 6 6 15 -2 9 -7 13 -15 11 -17z m534 17 c0 -5 -2 -10 -4 -10
-3 0 -8 5 -11 10 -3 6 -1 10 4 10 6 0 11 -4 11 -10z m270 0 c0 -5 -4 -10 -10
-10 -5 0 -10 5 -10 10 0 6 5 10 10 10 6 0 10 -4 10 -10z m154 -5 c-4 -8 -2
-15 3 -15 5 0 10 -7 10 -15 0 -9 -5 -14 -11 -12 -14 5 -21 57 -7 57 6 0 8 -7
5 -15z m-723 -13 c-7 -2 -18 1 -23 6 -8 8 -4 9 13 5 13 -4 18 -8 10 -11z m329
3 c0 -8 0 -18 1 -22 0 -4 -3 -9 -8 -10 -5 -2 -9 8 -9 22 0 14 4 25 8 25 4 0 8
-7 8 -15z m25 6 c3 -5 1 -12 -5 -16 -5 -3 -10 1 -10 9 0 18 6 21 15 7z m-211
-13 c-3 -4 -9 -8 -15 -8 -5 0 -9 4 -9 8 0 5 7 9 15 9 8 0 12 -4 9 -9z m500 6
c16 -6 23 -34 8 -34 -10 0 -32 22 -32 32 0 10 3 10 24 2z m-449 -23 c3 -5 2
-12 -3 -15 -5 -3 -9 1 -9 9 0 17 3 19 12 6z m47 -55 c7 4 8 2 4 -4 -5 -9 -14
-7 -31 5 -12 10 -21 22 -18 26 3 5 12 -1 20 -12 8 -12 19 -18 25 -15z m173 22
c5 4 5 -1 2 -11 -4 -11 -3 -16 3 -12 6 4 20 3 33 -1 18 -7 12 -9 -28 -15 -35
-4 -56 -2 -70 8 -16 10 -16 13 -3 13 9 0 19 7 22 16 5 12 10 14 20 5 7 -6 17
-7 21 -3z m148 -28 c3 -11 0 -23 -5 -27 -7 -3 -8 -1 -4 5 4 7 2 12 -3 12 -6 0
-11 9 -11 21 0 24 15 17 23 -11z m237 -31 c6 -10 9 -19 6 -19 -9 0 -36 31 -36
41 0 14 18 1 30 -22z m-760 -2 c0 -8 12 -19 26 -26 32 -14 30 -17 -13 -24 -19
-3 -33 -1 -33 5 0 6 7 7 16 4 8 -3 13 -2 10 3 -3 5 -19 11 -36 14 -16 4 -30
12 -30 18 0 6 7 9 15 5 8 -3 15 -1 15 4 0 6 7 10 15 10 8 0 15 -6 15 -13z m90
9 c0 -8 -60 -12 -72 -4 -8 4 4 8 30 8 23 0 42 -2 42 -4z m-160 -22 c0 -2 -7
-4 -15 -4 -8 0 -15 4 -15 10 0 5 7 7 15 4 8 -4 15 -8 15 -10z m650 -19 c0 -19
-4 -35 -8 -35 -4 0 -6 16 -4 35 2 19 6 35 8 35 2 0 4 -16 4 -35z m-736 16 c3
-5 -1 -11 -9 -14 -9 -4 -12 -1 -8 9 6 16 10 17 17 5z m46 -6 c0 -2 -10 -9 -22
-15 -22 -11 -22 -10 -4 4 21 17 26 19 26 11z m-87 -11 c12 -12 -16 -41 -35
-36 -23 6 -23 18 0 31 20 12 27 13 35 5z m112 -3 c3 -5 2 -12 -3 -15 -5 -3 -9
1 -9 9 0 17 3 19 12 6z m52 -7 c-3 -3 -12 -4 -19 -1 -8 3 -5 6 6 6 11 1 17 -2
13 -5z m773 -14 c0 -5 -8 -10 -17 -10 -15 0 -16 2 -3 10 19 12 20 12 20 0z
m55 0 c-3 -5 -12 -10 -18 -10 -7 0 -6 4 3 10 19 12 23 12 15 0z m1605 0 c49
-26 45 -71 -9 -91 -47 -18 -120 26 -105 64 11 31 78 46 114 27z m-2115 -10 c3
-5 -1 -10 -9 -10 -8 0 -18 5 -21 10 -3 6 1 10 9 10 8 0 18 -4 21 -10z m108 -5
c19 -8 37 -11 41 -8 3 4 6 1 6 -5 0 -8 -16 -12 -42 -11 -33 0 -38 2 -23 9 19
8 19 9 -2 9 -13 1 -23 6 -23 11 0 13 1 13 43 -5z m87 0 c0 -8 -7 -15 -15 -15
-8 0 -15 7 -15 15 0 8 7 15 15 15 8 0 15 -7 15 -15z m147 -4 c0 -11 -6 -17
-14 -14 -16 6 -17 20 0 26 6 3 13 6 14 6 1 1 1 -8 0 -18z m1228 5 c18 -13 18
-14 -1 -37 -13 -16 -27 -23 -43 -21 -13 2 -28 -2 -32 -10 -6 -9 -9 -5 -9 14 0
17 9 34 26 47 31 25 35 25 59 7z m-1185 0 c0 -3 -4 -8 -10 -11 -5 -3 -10 -1
-10 4 0 6 5 11 10 11 6 0 10 -2 10 -4z m-930 -10 c0 -2 -7 -9 -15 -16 -13 -11
-14 -10 -9 4 5 14 24 23 24 12z m116 -18 c-6 -10 -12 -14 -14 -8 -2 6 -11 6
-24 -1 -15 -8 -23 -8 -31 0 -17 17 10 31 49 29 28 -2 30 -4 20 -20z m1601 6
c-3 -3 -12 -4 -19 -1 -8 3 -5 6 6 6 11 1 17 -2 13 -5z m-1687 -19 c0 -2 -9 -3
-19 -2 -11 0 -18 5 -15 9 4 6 34 0 34 -7z m123 -2 c-7 -2 -19 -2 -25 0 -7 3
-2 5 12 5 14 0 19 -2 13 -5z m127 -6 c0 -14 -23 -19 -48 -11 -21 6 -3 24 24
24 13 0 24 -6 24 -13z m286 -19 c2 -15 -1 -16 -17 -7 -11 5 -29 7 -39 4 -14
-5 -20 -2 -20 10 0 24 72 17 76 -7z m634 6 c0 -2 -7 -4 -15 -4 -8 0 -15 4 -15
10 0 5 7 7 15 4 8 -4 15 -8 15 -10z m-1053 0 c-3 -3 -12 -4 -19 -1 -8 3 -5 6
6 6 11 1 17 -2 13 -5z m340 -20 c4 -13 -25 -23 -44 -17 -7 3 -13 11 -13 19 0
18 51 16 57 -2z m-247 -24 c0 -5 -5 -10 -11 -10 -5 0 -7 5 -4 10 3 6 8 10 11
10 2 0 4 -4 4 -10z m599 -5 c24 -3 46 -7 49 -9 7 -8 -69 -36 -79 -30 -5 3 -9
-2 -9 -10 0 -11 -9 -16 -27 -16 l-28 1 22 18 c21 18 17 51 -6 37 -6 -4 -16 -4
-22 0 -17 10 10 23 35 18 12 -3 41 -7 65 -9z m-319 1 c0 -11 -19 -15 -25 -6
-3 5 1 10 9 10 9 0 16 -2 16 -4z m2080 -17 c0 11 3 11 15 1 8 -7 15 -8 15 -3
0 13 30 12 31 -1 0 -6 4 -2 9 9 8 18 9 18 9 -5 1 -24 -2 -25 -64 -28 -60 -2
-65 -1 -65 19 0 11 5 17 10 14 6 -3 10 0 10 7 1 8 6 6 15 -6 9 -12 15 -15 15
-7z m280 -13 c0 -7 -21 -13 -55 -14 -44 -2 -55 1 -55 13 0 9 4 14 9 11 5 -4
12 0 14 6 3 8 6 6 6 -4 1 -24 17 -23 38 2 13 14 20 17 30 8 7 -6 13 -16 13
-22z m-2193 12 c21 12 49 0 39 -16 -3 -6 0 -13 6 -16 7 -3 2 -3 -12 0 -14 4
-28 12 -32 18 -5 7 -8 7 -8 1 0 -13 -50 -13 -70 0 -12 8 -9 11 15 15 17 3 33
2 36 -3 4 -5 15 -5 26 1z m1834 -6 c0 -14 2 -14 9 3 8 19 9 19 9 -1 1 -19 -5
-22 -41 -22 l-43 0 30 13 c30 14 30 14 3 9 -16 -4 -28 -2 -28 2 0 5 14 10 30
11 22 2 30 -2 31 -15z m189 -12 c5 0 11 7 13 15 4 11 4 10 3 -2 -1 -10 -9 -19
-19 -21 -12 -3 -17 3 -16 20 1 17 3 18 6 6 2 -10 8 -18 13 -18z m50 10 c0 -11
-4 -20 -9 -20 -6 0 -9 9 -8 20 1 11 5 20 9 20 4 0 8 -9 8 -20z m-1685 -9 c10
-17 -27 -30 -42 -16 -7 8 -13 16 -13 19 0 10 48 7 55 -3z m-145 -17 c0 -11 -5
-14 -16 -10 -9 3 -18 6 -20 6 -3 0 -2 5 1 10 10 16 35 12 35 -6z"/>
<path d="M1375 1080 c3 -5 10 -10 16 -10 5 0 9 5 9 10 0 6 -7 10 -16 10 -8 0
-12 -4 -9 -10z"/>
<path d="M1990 1425 c0 -7 72 -36 78 -31 2 3 -13 12 -33 20 -41 17 -45 18 -45
11z"/>
<path d="M956 1072 c-3 -4 4 -9 15 -9 23 -2 25 3 4 10 -8 4 -16 3 -19 -1z"/>
<path d="M1101 903 c-6 -7 -23 -13 -36 -13 -14 0 -25 -4 -25 -9 0 -14 48 -23
68 -12 9 5 36 12 60 16 24 4 42 12 42 20 0 17 -92 15 -109 -2z"/>
<path d="M1165 840 c27 -12 35 -12 35 0 0 6 -12 10 -27 9 -25 0 -26 -1 -8 -9z"/>
<path d="M1093 823 c-30 -15 -49 -40 -39 -50 2 -3 13 0 23 6 11 6 13 11 5 11
-7 0 -10 5 -6 11 3 6 17 9 30 6 13 -2 24 -3 24 -1 0 1 3 9 6 18 8 20 -2 19
-43 -1z"/>
<path d="M1260 688 c-16 -6 -20 -12 -12 -15 10 -4 9 -9 -4 -24 -16 -17 -13
-56 4 -45 4 2 22 25 40 50 28 39 30 46 15 45 -10 0 -29 -5 -43 -11z"/>
<path d="M1320 594 c0 -9 6 -14 12 -12 7 3 19 -2 27 -10 17 -16 27 -2 17 23
-8 21 -56 20 -56 -1z"/>
<path d="M1402 575 c0 -16 2 -22 5 -12 2 9 2 23 0 30 -3 6 -5 -1 -5 -18z"/>
<path d="M1440 480 c-9 -6 -10 -10 -3 -10 6 0 15 5 18 10 8 12 4 12 -15 0z"/>
<path d="M2138 363 c7 -3 16 -2 19 1 4 3 -2 6 -13 5 -11 0 -14 -3 -6 -6z"/>
<path d="M1795 260 c-8 -13 5 -13 25 0 13 8 13 10 -2 10 -9 0 -20 -4 -23 -10z"/>
<path d="M1468 133 c7 -3 16 -2 19 1 4 3 -2 6 -13 5 -11 0 -14 -3 -6 -6z"/>
<path d="M2492 991 c6 -10 18 -17 25 -14 15 6 18 33 2 33 -5 0 -7 -6 -3 -12 6
-10 4 -10 -7 0 -20 18 -31 14 -17 -7z"/>
<path d="M1360 784 c0 -8 5 -12 10 -9 6 4 8 11 5 16 -9 14 -15 11 -15 -7z"/>
<path d="M55 430 c3 -5 8 -10 11 -10 2 0 4 5 4 10 0 6 -5 10 -11 10 -5 0 -7
-4 -4 -10z"/>
<path d="M2658 198 c9 -9 15 -9 24 0 9 9 7 12 -12 12 -19 0 -21 -3 -12 -12z"/>
<path d="M2900 100 c0 -5 5 -10 11 -10 5 0 7 5 4 10 -3 6 -8 10 -11 10 -2 0
-4 -4 -4 -10z"/>
</g>
</svg>
