<?xml version="1.0" standalone="no"?>
<!DOCTYPE svg PUBLIC "-//W3C//DTD SVG 20010904//EN"
 "http://www.w3.org/TR/2001/REC-SVG-20010904/DTD/svg10.dtd">
<svg version="1.0" xmlns="http://www.w3.org/2000/svg"
 width="275.000000pt" height="183.000000pt" viewBox="0 0 275.000000 183.000000"
 preserveAspectRatio="xMidYMid meet">

<g transform="translate(0.000000,183.000000) scale(0.100000,-0.100000)"
fill="#000000" stroke="none">
<path d="M1357 1811 c3 -11 19 -32 36 -47 31 -28 31 -28 8 -2 -13 14 -20 31
-17 37 4 5 -2 15 -13 20 -16 9 -18 8 -14 -8z"/>
<path d="M1686 1801 c-24 -45 -76 -79 -137 -90 l-54 -10 53 4 c30 2 68 13 87
25 34 21 82 86 72 96 -3 3 -13 -8 -21 -25z"/>
<path d="M1933 1763 c3 -38 15 -93 26 -123 12 -30 21 -56 21 -56 0 -1 -11 1
-24 3 -13 3 -26 0 -30 -5 -4 -6 3 -8 16 -5 18 5 21 3 11 -7 -6 -7 -9 -19 -6
-28 5 -11 3 -13 -7 -7 -8 5 -30 10 -50 12 -19 2 -36 8 -38 13 -2 6 -8 10 -14
10 -7 0 -6 -5 1 -14 8 -9 8 -16 2 -20 -16 -10 -49 47 -70 120 -11 38 -20 65
-21 59 -2 -5 -2 -14 -1 -19 1 -5 -4 -13 -11 -17 -18 -12 -58 -11 -58 1 0 7 -6
7 -20 0 -16 -9 -20 -8 -20 6 0 14 -3 14 -15 4 -21 -17 -194 -7 -206 12 -7 11
-9 11 -9 0 0 -7 -4 -10 -10 -7 -5 3 -10 1 -10 -4 0 -6 -25 -12 -57 -13 l-58
-1 60 -6 c42 -4 59 -10 57 -19 -1 -7 -2 -23 -2 -35 0 -12 0 -46 0 -75 0 -46 3
-55 20 -59 15 -4 18 -9 10 -18 -17 -20 7 -24 134 -22 121 2 126 0 126 -44 0
-10 7 -19 15 -19 8 0 15 5 15 10 0 6 -4 10 -10 10 -5 0 -10 13 -10 29 0 21 6
30 22 34 12 4 24 4 27 2 2 -3 -1 -5 -7 -5 -7 0 -12 -4 -12 -10 0 -5 9 -10 19
-10 11 0 23 -4 26 -10 8 -13 35 -13 35 0 0 6 -8 13 -17 17 -10 3 -26 13 -36
21 -20 17 -82 28 -72 12 4 -6 -9 -10 -30 -10 -42 0 -44 21 -4 30 27 6 36 38
20 68 -7 13 -7 22 1 30 7 7 8 12 4 12 -5 0 -3 7 4 15 9 10 9 15 1 15 -6 0 -11
5 -11 10 0 6 20 10 44 10 38 0 43 -3 39 -18 -2 -10 5 -36 17 -57 19 -34 20
-39 5 -54 -8 -10 -15 -22 -15 -27 0 -5 8 0 16 11 16 20 16 20 27 1 29 -47 97
-124 134 -151 23 -16 42 -32 42 -35 1 -3 -173 -5 -386 -4 -214 0 -370 -1 -348
-2 22 -2 202 -5 401 -6 l361 -3 39 -30 c21 -16 43 -30 49 -30 5 0 32 -11 59
-24 59 -28 116 -39 116 -22 0 9 26 11 90 10 50 -1 90 -6 90 -10 0 -5 -9 -9
-21 -9 -11 0 -17 -4 -14 -10 3 -5 16 -10 28 -10 21 -1 21 -1 -5 -24 -15 -13
-33 -27 -40 -30 -10 -5 -10 -7 0 -12 6 -3 10 -9 7 -14 -2 -4 20 -6 50 -4 49 3
55 1 55 -17 0 -10 -6 -19 -12 -19 -9 0 -9 -3 1 -9 11 -7 3 -12 -30 -21 -76
-19 -80 -21 -76 -33 2 -7 16 -10 33 -8 66 10 109 6 112 -10 2 -12 -14 -23 -58
-39 -85 -32 -88 -45 -9 -37 l64 6 -40 -21 c-25 -14 -58 -22 -89 -23 -56 0 -42
15 -185 -198 -40 -59 -77 -104 -83 -101 -5 3 -18 20 -29 38 -23 38 -24 30 -3
-24 9 -22 14 -46 11 -54 -6 -15 22 -46 41 -46 19 0 16 -11 -44 -163 -96 -243
-108 -287 -79 -287 8 0 18 -7 21 -15 5 -12 32 -15 154 -15 l149 0 -55 115
c-30 63 -54 123 -54 133 0 13 -2 14 -9 4 -6 -11 -10 -10 -15 4 -8 22 -10 21
64 40 45 11 92 15 155 12 109 -5 152 -25 231 -112 68 -74 84 -74 84 2 0 65 -6
78 -28 59 -12 -9 -14 -9 -9 0 5 8 -6 16 -35 23 -24 6 -51 13 -60 16 -10 3 -36
20 -58 39 -22 18 -44 35 -48 37 -13 5 -84 106 -121 171 -18 31 -37 55 -41 52
-5 -3 -14 3 -19 14 -16 29 -13 39 4 17 12 -15 15 -16 15 -5 0 20 30 33 129 59
93 24 160 25 224 6 l47 -14 0 164 0 164 -40 0 c-121 0 -212 144 -178 279 20
77 114 154 190 154 l29 0 -2 139 c-1 124 -8 162 -22 126 -4 -10 -6 -10 -6 0
-1 7 5 23 12 35 8 12 15 39 16 60 l3 37 -104 0 c-92 0 -108 -3 -148 -25 -25
-14 -62 -33 -82 -42 -21 -9 -35 -19 -33 -24 7 -10 -25 -20 -75 -23 -36 -3 -38
-2 -22 11 9 7 13 13 7 12 -33 -4 -56 2 -49 14 6 9 5 9 -8 0 -8 -7 -18 -9 -22
-5 -4 4 -7 3 -6 -3 5 -22 -1 -34 -13 -29 -8 3 -20 -2 -27 -11 -7 -8 -22 -15
-34 -15 -12 0 -27 -5 -34 -12 -16 -16 -16 -88 1 -88 8 0 7 -4 -3 -10 -30 -20
-112 109 -128 202 -5 30 -13 44 -26 46 -18 4 -19 -1 -13 -65z m374 -68 c0 -8
-4 -12 -9 -9 -5 3 -6 10 -3 15 9 13 12 11 12 -6z m-187 -52 c0 -22 -2 -25 -10
-13 -13 20 -13 40 0 40 6 0 10 -12 10 -27z m-130 -83 c0 -5 -4 -10 -10 -10 -5
0 -10 5 -10 10 0 6 5 10 10 10 6 0 10 -4 10 -10z m-145 -58 c-3 -3 -11 0 -18
7 -9 10 -8 11 6 5 10 -3 15 -9 12 -12z m670 -642 c-11 -5 -31 -9 -45 -9 -20
-1 -22 1 -10 9 8 5 29 9 45 9 26 0 27 -2 10 -9z m71 -82 c3 -4 3 -12 -1 -18
-7 -12 -35 4 -35 20 0 9 26 7 36 -2z m-22 -35 c8 -19 -9 -33 -41 -33 l-21 0
21 25 c26 29 33 31 41 8z m-526 -688 c-3 -3 -9 2 -12 12 -6 14 -5 15 5 6 7 -7
10 -15 7 -18z"/>
<path d="M1412 1809 c2 -6 8 -10 13 -10 5 0 11 4 13 10 2 6 -4 11 -13 11 -9 0
-15 -5 -13 -11z"/>
<path d="M1437 1729 c7 -7 15 -10 18 -7 3 3 -2 9 -12 12 -14 6 -15 5 -6 -5z"/>
<path d="M1806 1578 c3 -5 10 -6 15 -3 13 9 11 12 -6 12 -8 0 -12 -4 -9 -9z"/>
<path d="M1770 1245 c-7 -8 -13 -41 -14 -72 -1 -55 0 -57 39 -85 23 -16 60
-31 87 -34 46 -6 49 -5 88 33 22 23 40 50 40 62 0 26 -55 63 -134 91 -71 24
-89 25 -106 5z"/>
<path d="M2110 1110 c-42 -42 -20 -122 42 -150 65 -30 128 -23 151 16 4 7 15
11 25 8 12 -4 13 -3 4 3 -10 8 -10 17 2 45 15 35 15 37 -9 52 -26 17 -134 46
-172 46 -13 0 -32 -9 -43 -20z"/>
<path d="M1750 1070 c12 -16 28 -30 36 -30 8 0 14 -4 14 -8 0 -8 69 -43 110
-56 8 -2 -131 -5 -309 -5 -178 -1 -322 -3 -320 -6 3 -2 172 -5 377 -6 205 0
372 -5 372 -9 0 -4 18 -2 40 3 28 8 36 14 30 23 -6 6 -22 9 -36 6 -20 -3 -26
0 -31 17 -3 14 -13 21 -29 21 -13 0 -24 3 -24 8 0 4 -27 8 -59 8 -47 0 -73 7
-121 32 -33 18 -63 32 -66 32 -3 0 4 -13 16 -30z"/>
<path d="M2363 1063 c-19 -7 -16 -43 3 -43 8 0 13 4 9 9 -3 5 -1 12 5 16 23
15 10 29 -17 18z"/>
<path d="M2040 1004 c0 -8 9 -14 20 -14 11 0 20 4 20 9 0 5 -9 11 -20 14 -13
3 -20 0 -20 -9z"/>
<path d="M1138 963 c12 -2 32 -2 45 0 12 2 2 4 -23 4 -25 0 -35 -2 -22 -4z"/>
<path d="M2291 950 c-31 -26 -7 -26 26 0 14 11 20 20 12 20 -8 -1 -25 -10 -38
-20z"/>
<path d="M2125 930 c3 -5 36 -10 72 -10 83 0 79 5 -10 14 -46 5 -67 3 -62 -4z"/>
<path d="M2573 656 c-5 -10 -25 -18 -47 -20 -20 -2 -43 -11 -49 -19 -11 -14
-13 -14 -27 1 -13 14 -12 15 3 9 11 -4 16 -3 12 3 -7 11 -41 12 -67 2 -15 -6
-12 -16 25 -77 70 -117 145 -213 179 -231 18 -9 58 -17 88 -18 l55 -1 3 173 2
172 -25 10 c-33 12 -136 13 -116 1 8 -5 9 -11 3 -15 -6 -4 -15 1 -20 10 -9 16
-10 16 -19 0z"/>
<path d="M2538 653 c7 -3 16 -2 19 1 4 3 -2 6 -13 5 -11 0 -14 -3 -6 -6z"/>
<path d="M1590 414 c0 -7 9 -22 21 -35 16 -19 18 -20 10 -4 -17 34 -31 51 -31
39z"/>
<path d="M1684 337 c21 -26 40 -47 43 -47 7 0 -56 78 -70 87 -6 4 6 -14 27
-40z"/>
<path d="M1660 305 c0 -18 19 -40 26 -32 4 4 0 15 -9 24 -9 10 -17 13 -17 8z"/>
<path d="M2370 288 c-30 -4 -67 -11 -82 -15 l-28 -8 43 -90 c24 -50 53 -109
65 -133 l22 -42 128 0 128 0 18 50 18 49 26 -16 c27 -17 27 -17 10 2 -9 11
-18 27 -20 35 -2 8 -7 20 -13 26 -5 7 -29 34 -53 62 -63 73 -141 97 -262 80z"/>
<path d="M1662 233 c-24 -8 -41 -17 -39 -19 4 -5 97 26 97 32 0 6 -11 4 -58
-13z"/>
<path d="M1846 235 c22 -7 55 -20 72 -29 38 -20 42 -20 42 -1 0 9 -9 15 -22
15 -13 0 -41 7 -63 15 -22 8 -47 14 -55 14 -8 -1 3 -7 26 -14z"/>
<path d="M1218 233 c12 -2 32 -2 45 0 12 2 2 4 -23 4 -25 0 -35 -2 -22 -4z"/>
<path d="M1752 210 c0 -19 2 -27 5 -17 2 9 2 25 0 35 -3 9 -5 1 -5 -18z"/>
<path d="M1681 200 l-35 -17 41 0 c35 0 40 2 36 18 -3 11 -6 19 -7 18 0 -1
-16 -9 -35 -19z"/>
<path d="M1790 201 c0 -15 5 -18 21 -14 12 4 25 0 30 -8 6 -10 9 -10 9 -1 0 6
4 12 10 12 5 0 7 -8 4 -17 -4 -11 -2 -14 3 -8 14 17 32 16 72 -5 37 -19 39
-19 34 -1 -3 14 -18 21 -51 26 -26 4 -62 13 -81 21 -44 18 -51 18 -51 -5z"/>
<path d="M1565 200 c-13 -5 -14 -9 -5 -9 8 0 24 4 35 9 13 5 14 9 5 9 -8 0
-24 -4 -35 -9z"/>
<path d="M1575 170 l-30 -8 30 -1 c17 0 37 4 45 9 13 9 13 10 0 9 -8 -1 -28
-5 -45 -9z"/>
<path d="M1986 107 c3 -10 9 -15 12 -12 3 3 0 11 -7 18 -10 9 -11 8 -5 -6z"/>
</g>
</svg>
