<?xml version="1.0" standalone="no"?>
<!DOCTYPE svg PUBLIC "-//W3C//DTD SVG 20010904//EN"
 "http://www.w3.org/TR/2001/REC-SVG-20010904/DTD/svg10.dtd">
<svg version="1.0" xmlns="http://www.w3.org/2000/svg"
 width="300.000000pt" height="168.000000pt" viewBox="0 0 300.000000 168.000000"
 preserveAspectRatio="xMidYMid meet">

<g transform="translate(0.000000,168.000000) scale(0.100000,-0.100000)"
fill="#000000" stroke="none">
<path d="M1204 1664 c9 -23 -4 -70 -15 -52 -7 10 -9 8 -10 -7 -1 -11 -4 -36
-7 -55 -2 -19 -5 -84 -6 -143 -1 -93 2 -110 16 -118 10 -5 20 -26 24 -47 7
-44 85 -202 96 -196 4 3 5 -1 3 -8 -3 -8 8 -24 25 -36 l31 -23 -6 28 c-6 28
-6 28 7 5 8 -12 17 -19 21 -16 4 4 7 2 7 -4 0 -7 11 -12 25 -12 23 0 25 3 19
27 l-7 27 23 -22 c24 -22 30 -38 32 -80 0 -14 5 -21 13 -18 8 3 17 -12 25 -40
11 -40 11 -50 -5 -82 -20 -41 -23 -51 -31 -102 -3 -19 -15 -61 -26 -94 -10
-32 -17 -65 -13 -74 3 -8 1 -20 -5 -27 -8 -10 -6 -15 10 -20 16 -5 19 -11 14
-28 -4 -12 -9 -34 -10 -50 -1 -15 -10 -39 -19 -53 -12 -19 -14 -29 -5 -39 13
-16 9 -17 -98 -39 -73 -15 -248 -93 -271 -120 -7 -8 -15 -44 -18 -80 l-6 -66
276 0 c254 0 276 1 280 18 4 15 5 15 6 0 1 -14 15 -16 92 -17 84 0 91 2 99 22
5 12 9 16 9 10 1 -7 8 -13 17 -13 11 0 14 5 10 16 -5 14 -4 15 9 4 12 -10 15
-10 15 4 0 9 -8 16 -17 16 -13 0 -12 5 8 26 23 24 34 74 17 74 -4 0 -8 5 -8
11 0 5 5 7 11 3 7 -4 10 -1 7 7 -3 8 -13 13 -22 11 -10 -2 -20 7 -26 23 -13
33 -13 36 3 32 6 -1 11 4 10 11 -2 6 5 12 15 13 10 0 12 3 5 6 -14 5 0 24 27
36 8 4 -1 5 -20 2 l-35 -4 29 15 c22 12 26 18 15 25 -11 6 -11 11 -1 21 16 16
16 31 0 22 -9 -5 -8 -2 1 9 8 10 16 15 19 12 8 -7 42 36 36 46 -3 5 2 9 10 9
8 0 18 5 22 12 4 6 3 8 -4 5 -15 -10 -40 2 -38 18 3 18 16 32 16 17 0 -7 7 -5
18 5 19 20 21 79 4 109 -11 18 -12 18 -18 -3 -8 -28 -16 -29 -38 -4 -11 12
-14 21 -7 26 6 3 11 1 11 -5 0 -7 6 -10 13 -7 6 2 11 11 9 20 -2 10 7 19 23
23 14 3 26 14 26 23 8 88 9 83 -19 77 l-27 -5 27 12 c19 9 24 17 19 26 -7 11
-9 11 -13 0 -3 -8 -8 -11 -12 -7 -6 5 3 28 22 58 2 2 7 -1 11 -9 11 -18 52 40
62 88 7 31 6 -5 0 -102 -1 -5 -6 -5 -13 -1 -8 5 -9 -4 -5 -32 4 -21 7 -45 7
-53 0 -8 16 12 36 44 35 59 50 75 69 75 6 0 5 -4 -1 -8 -20 -12 -28 -54 -13
-64 11 -7 9 -8 -5 -6 -22 4 -42 -43 -30 -70 6 -13 9 -7 15 23 7 39 7 39 3 -5
-3 -25 -8 -74 -12 -110 l-8 -65 -16 37 c-18 39 -14 76 10 94 11 8 12 13 4 18
-6 4 -19 -2 -29 -13 -9 -11 -20 -18 -25 -15 -12 7 -10 -55 3 -96 25 -81 27
-210 6 -322 -11 -60 -24 -108 -29 -108 -5 0 -6 -4 -3 -10 11 -17 23 -11 29 15
4 14 14 25 22 25 17 0 16 -8 0 -83 -5 -20 -2 -29 9 -33 10 -4 15 -19 15 -45
l0 -39 416 0 c352 0 415 2 411 14 -3 8 -13 52 -22 97 -29 146 -74 291 -88 282
-17 -10 -27 21 -27 84 0 34 -5 74 -11 90 -6 15 -11 45 -10 65 0 21 -6 57 -13
80 -8 24 -18 75 -22 115 -5 61 -10 72 -28 78 -18 6 -19 8 -3 12 9 2 17 8 17
12 0 11 -39 51 -50 51 -6 0 -10 5 -10 10 0 17 24 11 53 -14 15 -13 27 -31 27
-40 0 -9 6 -16 14 -16 7 0 19 -7 27 -16 10 -13 10 -17 -1 -24 -7 -4 -10 -15
-7 -23 3 -9 2 -17 -2 -19 -4 -2 -1 -27 7 -56 13 -47 16 -50 28 -35 13 17 14
16 11 -7 -1 -19 3 -25 16 -23 12 0 16 -4 13 -13 -3 -7 -1 -16 3 -19 5 -2 14
30 20 73 13 85 39 196 40 172 1 -19 -26 -228 -44 -339 -13 -79 -13 -85 5 -108
l19 -24 14 27 c14 27 14 26 10 -23 -4 -37 -1 -58 11 -74 9 -13 15 -35 15 -49
-1 -17 -3 -19 -6 -7 -2 9 -9 17 -14 17 -6 0 -5 -8 1 -21 6 -11 9 -25 6 -32 -3
-9 -5 -9 -5 1 -1 6 -6 12 -12 12 -7 0 -9 -17 -3 -52 4 -29 8 -62 10 -73 1 -11
3 -20 4 -20 3 0 6 -22 16 -102 l7 -63 38 0 39 0 0 840 0 840 -199 0 c-150 0
-201 -3 -204 -12 -4 -10 -6 -10 -6 0 -1 6 -14 12 -30 12 -26 0 -30 -4 -36 -40
-7 -43 1 -84 16 -75 5 4 9 -1 9 -10 0 -9 -4 -13 -10 -10 -5 3 -10 0 -11 -7 -7
-109 -6 -128 3 -122 6 4 9 -12 7 -47 -3 -44 1 -62 24 -100 15 -25 27 -52 28
-60 0 -8 7 2 15 21 l14 35 -4 -60 c-2 -33 -8 -69 -12 -79 -5 -14 -4 -17 5 -11
10 6 12 -3 10 -39 -3 -33 0 -47 10 -51 8 -3 12 -8 9 -11 -3 -2 -17 1 -32 7
-18 8 -26 20 -26 37 0 37 -35 77 -78 90 l-39 12 -1 90 c-1 91 -6 115 -22 105
-16 -10 -41 42 -45 96 -7 75 -57 123 -92 88 -8 -8 -17 -7 -34 5 -26 18 -79 22
-79 6 0 -18 -4 -25 -22 -40 -24 -20 -79 -172 -83 -230 l-3 -45 14 30 c7 17 13
46 14 66 0 20 6 42 14 48 20 17 27 -44 9 -87 -8 -19 -9 -31 -4 -27 6 3 11 13
11 21 0 8 4 13 8 10 10 -6 5 -60 -7 -91 -30 -72 -29 -72 -26 -17 2 31 0 50 -6
47 -5 -4 -9 -16 -10 -28 l0 -22 -9 23 c-5 12 -12 22 -14 22 -3 0 -3 -7 1 -16
3 -8 0 -25 -6 -37 -8 -16 -9 -30 -2 -47 l9 -25 10 25 c9 21 14 18 11 -6 -1
-12 46 -31 56 -22 14 12 27 10 19 -4 -4 -7 -3 -8 4 -4 8 5 12 -1 12 -15 0 -12
-3 -19 -7 -16 -3 4 -13 1 -22 -7 -24 -22 -65 -23 -85 -3 -12 11 -22 14 -30 9
-16 -13 -76 5 -70 22 3 7 -3 19 -12 27 -16 12 -17 12 -9 -1 6 -12 6 -13 -6 -2
-12 11 -12 14 1 22 9 5 19 5 27 -2 10 -8 12 -7 7 6 -3 9 -10 16 -15 16 -6 0
-6 7 0 18 8 14 6 18 -10 19 -10 1 -19 -2 -19 -7 0 -4 -11 -7 -24 -6 -18 2 -23
-1 -18 -12 3 -10 1 -13 -6 -9 -6 4 -12 -1 -14 -10 -2 -10 -3 20 -3 67 0 75 -3
88 -22 108 -13 12 -23 30 -23 40 0 15 2 15 11 2 8 -11 9 -6 5 20 -4 21 -3 28
2 17 4 -10 12 -19 17 -20 9 -2 15 53 6 68 -3 6 -6 12 -7 15 -6 31 -18 59 -23
55 -11 -6 -6 26 11 65 8 19 11 37 7 40 -4 3 -11 18 -14 33 -10 36 -25 34 -25
-4 0 -16 4 -28 9 -25 5 3 12 -1 15 -10 9 -22 8 -26 -5 -18 -8 4 -9 0 -4 -15 4
-12 2 -21 -4 -21 -10 0 -15 14 -12 33 1 5 -3 6 -9 2 -6 -4 -10 11 -10 39 l0
45 -301 1 c-272 0 -301 -1 -295 -16z m533 -71 c-3 -10 -5 -2 -5 17 0 19 2 27
5 18 2 -10 2 -26 0 -35z m1140 -10 c-3 -10 -5 -2 -5 17 0 19 2 27 5 18 2 -10
2 -26 0 -35z m-1127 -33 c0 -5 -2 -10 -4 -10 -3 0 -8 5 -11 10 -3 6 -1 10 4
10 6 0 11 -4 11 -10z m1117 -22 c-3 -7 -5 -2 -5 12 0 14 2 19 5 13 2 -7 2 -19
0 -25z m-1047 -47 c-1 -13 -29 45 -29 59 0 8 6 0 14 -19 8 -18 15 -36 15 -40z
m-260 28 c0 -4 9 -11 21 -14 20 -7 19 -8 -11 -27 -18 -11 -41 -20 -51 -21 -11
-1 -19 -6 -19 -11 0 -6 -6 -4 -12 3 -11 10 -9 15 5 25 11 9 15 20 11 32 -4 14
-3 15 4 6 8 -11 10 -11 15 0 5 15 37 21 37 7z m240 -40 c0 -11 4 -17 10 -14 6
4 7 -1 3 -11 -4 -10 -2 -15 3 -11 10 6 10 -17 -2 -91 -3 -18 -9 -30 -14 -27
-4 3 -11 -1 -13 -7 -4 -9 -6 -9 -6 -1 -1 6 6 18 14 27 22 21 19 88 -5 116 -19
22 -19 40 1 40 5 0 9 -9 9 -21z m1177 -21 c-3 -8 -6 -5 -6 6 -1 11 2 17 5 13
3 -3 4 -12 1 -19z m-670 -59 c-2 -9 4 -22 14 -30 22 -15 25 -29 7 -29 -34 -1
-51 -30 -52 -84 -1 -30 2 -52 5 -50 4 2 9 -2 12 -10 4 -9 -5 -16 -26 -22 l-32
-7 29 -4 c22 -4 26 -7 15 -14 -11 -7 -9 -9 7 -9 30 0 36 -11 17 -32 -9 -11
-11 -18 -5 -18 7 0 12 -7 12 -15 0 -20 16 -19 24 1 4 9 9 14 13 11 3 -4 -3
-19 -13 -34 -37 -55 -72 -134 -67 -152 3 -13 11 -17 29 -13 13 2 22 8 19 12
-3 5 5 6 16 3 15 -4 27 0 35 12 13 18 14 18 14 1 0 -11 5 -16 13 -13 7 3 24
-1 37 -8 12 -7 31 -10 40 -8 15 4 18 -6 22 -80 5 -93 24 -134 91 -199 18 -17
25 -26 16 -19 -9 6 -18 9 -21 6 -2 -3 -19 16 -37 41 -18 25 -34 44 -36 42 -1
-2 -12 -22 -23 -45 -13 -29 -17 -45 -10 -50 7 -4 8 -1 3 7 -6 9 -4 11 5 5 9
-5 3 -15 -20 -35 -29 -25 -31 -29 -15 -38 16 -8 17 -16 9 -53 -9 -45 -31 -53
-25 -9 3 21 1 22 -13 11 -14 -12 -16 -9 -16 20 0 19 -4 40 -8 47 -14 21 -59
-37 -67 -86 -4 -23 -11 -42 -16 -42 -6 0 -7 15 -3 34 5 31 3 36 -24 50 -29 15
-41 39 -42 86 -1 23 -2 23 -9 5 -5 -11 -11 -94 -14 -185 -4 -91 -10 -191 -13
-222 -6 -50 -4 -58 10 -58 9 0 16 -4 16 -10 0 -11 -78 -14 -104 -4 -9 3 -16
15 -16 26 0 10 4 17 9 13 5 -3 12 -1 16 5 3 5 18 10 33 11 25 0 25 1 6 9 -30
12 -34 31 -24 97 13 77 11 189 -5 293 -11 73 -13 79 -15 40 -2 -42 -3 -43 -10
-15 -14 55 -10 112 10 156 11 24 20 37 20 29 1 -9 5 -6 10 8 5 12 6 30 3 39
-4 11 -3 14 5 9 8 -5 12 4 12 28 0 20 5 36 10 36 6 0 10 8 10 17 0 9 12 34 26
54 25 37 26 39 11 89 -13 44 -13 51 -1 46 21 -8 17 4 -10 29 -17 16 -26 38
-31 78 -8 65 -2 79 31 71 15 -4 24 -2 24 6 0 21 -20 50 -35 50 -8 0 -15 5 -15
10 0 6 4 10 9 10 5 0 14 14 21 30 17 41 49 63 68 48 7 -6 11 -19 9 -29z m350
-1 c-3 -8 -6 -5 -6 6 -1 11 2 17 5 13 3 -3 4 -12 1 -19z m-47 2 c0 -5 -4 -10
-10 -10 -5 0 -10 5 -10 10 0 6 5 10 10 10 6 0 10 -4 10 -10z m-180 -60 c0 -5
-4 -10 -9 -10 -5 0 -9 -16 -9 -36 0 -19 -3 -38 -6 -41 -8 -8 -8 61 0 81 7 18
24 22 24 6z m183 -10 c-3 -12 -8 -19 -11 -16 -5 6 5 36 12 36 2 0 2 -9 -1 -20z
m-1426 -12 c-3 -8 -6 -5 -6 6 -1 11 2 17 5 13 3 -3 4 -12 1 -19z m283 -13 c0
-21 5 -25 28 -25 45 0 74 -11 68 -26 -3 -8 -1 -14 4 -14 6 0 10 6 10 13 0 14
37 20 45 7 2 -4 -2 -13 -10 -20 -8 -7 -15 -10 -15 -6 0 3 -11 1 -25 -4 -14 -5
-25 -6 -25 -1 0 5 -9 7 -21 4 -12 -3 -18 -11 -15 -19 3 -8 -1 -14 -9 -14 -8 0
-15 4 -15 9 0 5 -9 7 -20 4 -13 -3 -20 -12 -18 -22 3 -12 13 -15 41 -13 20 2
37 -1 37 -7 0 -12 -32 -17 -93 -12 -45 3 -48 5 -42 25 4 11 14 49 22 84 12 49
19 62 34 62 14 0 19 -7 19 -25z m287 -7 c-3 -8 -6 -5 -6 6 -1 11 2 17 5 13 3
-3 4 -12 1 -19z m607 -57 c-4 -14 -11 -34 -16 -44 -13 -26 -34 -1 -36 44 -1
34 0 35 28 31 26 -4 29 -7 24 -31z m-707 -3 c-3 -8 -6 -5 -6 6 -1 11 2 17 5
13 3 -3 4 -12 1 -19z m-19 -107 c3 -8 -1 -12 -9 -9 -7 2 -15 10 -17 17 -3 8 1
12 9 9 7 -2 15 -10 17 -17z m1139 -13 c-3 -8 -6 -5 -6 6 -1 11 2 17 5 13 3 -3
4 -12 1 -19z m-1368 -22 c-3 -3 -11 5 -18 17 -13 21 -12 21 5 5 10 -10 16 -20
13 -22z m801 18 c0 -8 -4 -12 -10 -9 -5 3 -10 10 -10 16 0 5 5 9 10 9 6 0 10
-7 10 -16z m-310 -36 c0 -6 -6 -5 -15 2 -8 7 -15 14 -15 16 0 2 7 1 15 -2 8
-4 15 -11 15 -16z m23 -8 c3 -10 -1 -24 -8 -30 -10 -9 -13 -7 -10 7 2 10 4 24
4 31 1 18 8 15 14 -8z m-454 -30 c0 -10 -3 -8 -9 5 -12 27 -12 43 0 25 5 -8 9
-22 9 -30z m1298 -7 c-3 -10 -5 -4 -5 12 0 17 2 24 5 18 2 -7 2 -21 0 -30z
m160 -5 c-3 -8 -6 -5 -6 6 -1 11 2 17 5 13 3 -3 4 -12 1 -19z m-1113 6 c9 -3
16 -12 16 -20 0 -21 -20 -17 -21 4 0 10 -6 4 -15 -15 -13 -31 -34 -45 -34 -24
0 5 -3 18 -6 28 -6 16 -5 16 9 -2 16 -20 16 -20 17 1 0 31 9 38 34 28z m292
-49 c-18 -27 -39 -34 -30 -10 4 8 10 15 14 15 5 0 12 10 16 23 4 13 9 17 12 9
2 -7 -3 -24 -12 -37z m787 -16 c-5 -5 -7 7 -4 29 5 34 6 35 9 8 2 -16 0 -32
-5 -37z m-1010 28 c-5 -8 -8 -7 -11 1 -2 7 -9 9 -14 6 -7 -4 -8 -2 -4 4 4 6
13 9 21 6 8 -4 12 -11 8 -17z m34 -19 c-3 -7 -5 -2 -5 12 0 14 2 19 5 13 2 -7
2 -19 0 -25z m-180 0 c-3 -8 -6 -5 -6 6 -1 11 2 17 5 13 3 -3 4 -12 1 -19z
m-17 3 c0 -6 -4 -13 -10 -16 -5 -3 -10 1 -10 9 0 9 5 16 10 16 6 0 10 -4 10
-9z m775 -41 c-5 -8 -11 -8 -21 1 -12 10 -12 14 -2 20 16 10 33 -5 23 -21z
m-37 -25 c-2 -15 -6 -21 -11 -16 -6 6 -7 17 -4 25 9 24 17 19 15 -9z m-318 1
c0 -7 -13 -16 -28 -19 -18 -4 -33 -16 -42 -34 -12 -25 -14 -26 -18 -8 -3 11 3
24 13 30 9 5 26 18 37 28 25 21 38 22 38 3z m22 -68 c-8 -8 -9 -4 -5 13 4 13
8 18 11 10 2 -7 -1 -18 -6 -23z m647 -41 c1 -5 -3 -5 -9 -2 -5 3 -10 16 -9 28
0 21 1 21 9 2 5 -11 9 -24 9 -28z m-924 -47 c3 -5 1 -10 -4 -10 -6 0 -11 5
-11 10 0 6 2 10 4 10 3 0 8 -4 11 -10z m-12 -40 c3 -11 1 -20 -4 -20 -5 0 -9
9 -9 20 0 11 2 20 4 20 2 0 6 -9 9 -20z m82 0 c3 -5 1 -10 -4 -10 -6 0 -11 5
-11 10 0 6 2 10 4 10 3 0 8 -4 11 -10z m-132 -82 c-2 -5 0 -14 5 -21 7 -8 6
-18 -5 -32 -11 -14 -14 -15 -10 -4 3 9 -1 26 -9 38 -9 12 -11 21 -5 21 6 0 11
8 11 18 0 14 2 15 9 2 6 -8 7 -18 4 -22z m22 22 c3 -5 1 -10 -4 -10 -6 0 -11
5 -11 10 0 6 2 10 4 10 3 0 8 -4 11 -10z m212 -72 c-3 -8 -6 -5 -6 6 -1 11 2
17 5 13 3 -3 4 -12 1 -19z m-464 -37 c-15 -28 -29 -48 -31 -46 -4 4 48 95 55
95 2 0 -8 -22 -24 -49z m1068 -18 c13 -16 12 -17 -3 -4 -10 7 -18 15 -18 17 0
8 8 3 21 -13z m-271 -7 c0 -20 -22 -56 -35 -56 -19 0 -19 6 3 35 15 22 32 32
32 21z m-530 -66 c0 -5 -5 -10 -11 -10 -5 0 -7 5 -4 10 3 6 8 10 11 10 2 0 4
-4 4 -10z m510 -20 c0 -5 -4 -10 -10 -10 -5 0 -10 5 -10 10 0 6 5 10 10 10 6
0 10 -4 10 -10z m-515 -9 c3 -5 1 -12 -5 -16 -5 -3 -10 1 -10 9 0 18 6 21 15
7z m-345 -11 c0 -5 -2 -10 -4 -10 -3 0 -8 5 -11 10 -3 6 -1 10 4 10 6 0 11 -4
11 -10z m851 -107 c-10 -17 -10 -17 -11 2 0 11 4 31 8 45 l7 25 3 -27 c2 -15
-1 -35 -7 -45z m435 25 c1 -24 4 -63 8 -88 5 -39 5 -42 -5 -17 -8 20 -17 27
-31 25 -25 -4 -32 23 -14 55 9 18 40 67 41 67 0 0 1 -19 1 -42z m-1258 -60
c-3 -53 -9 -83 -19 -88 -19 -13 -30 9 -25 50 3 19 8 56 11 82 5 37 9 46 22 41
13 -5 15 -20 11 -85z m1398 46 c-4 -9 -9 -15 -11 -12 -3 3 -3 13 1 22 4 9 9
15 11 12 3 -3 3 -13 -1 -22z m-602 -26 c-10 -16 -22 -7 -17 13 4 15 8 17 14 8
4 -7 5 -17 3 -21z m636 -11 c0 -16 3 -18 9 -8 6 9 9 5 9 -13 0 -24 -2 -25 -13
-9 -19 27 -30 67 -16 59 6 -4 11 -17 11 -29z m-213 -79 c-3 -8 -6 -5 -6 6 -1
11 2 17 5 13 3 -3 4 -12 1 -19z m-57 -51 c0 -7 -9 -13 -20 -13 -22 0 -27 12
-7 19 21 9 27 8 27 -6z m-1025 -7 c3 -5 -1 -10 -10 -10 -9 0 -13 5 -10 10 3 6
8 10 10 10 2 0 7 -4 10 -10z m121 -46 c-9 -8 -16 -20 -16 -26 0 -6 -3 -9 -6
-6 -3 3 -2 22 1 42 6 31 9 34 22 21 13 -13 13 -17 -1 -31z m-183 6 c-3 -12 -8
-19 -11 -16 -5 6 5 36 12 36 2 0 2 -9 -1 -20z m237 14 c0 -3 -7 -12 -15 -21
-20 -19 -32 -9 -15 12 12 15 30 20 30 9z m-243 -66 c-3 -8 -6 -5 -6 6 -1 11 2
17 5 13 3 -3 4 -12 1 -19z m73 12 c0 -5 -4 -10 -10 -10 -5 0 -10 5 -10 10 0 6
5 10 10 10 6 0 10 -4 10 -10z m-10 -41 c0 -5 -7 -9 -15 -9 -15 0 -20 12 -9 23
8 8 24 -1 24 -14z"/>
<path d="M2395 580 c4 -6 11 -8 16 -5 14 9 11 15 -7 15 -8 0 -12 -5 -9 -10z"/>
<path d="M1860 1655 c0 -14 5 -25 10 -25 6 0 10 -9 10 -20 0 -24 39 -100 51
-100 5 0 9 -7 9 -15 0 -8 11 -22 24 -30 19 -13 29 -14 45 -5 12 6 21 8 21 4 0
-3 7 -1 15 6 13 11 12 16 -6 44 l-21 31 21 -24 c13 -14 27 -21 37 -17 12 4 15
2 10 -9 -7 -19 15 -15 31 5 9 12 8 20 -4 39 -8 13 -10 21 -5 17 6 -3 13 -2 16
3 4 5 18 8 32 5 13 -2 34 2 45 10 21 14 21 14 -3 27 -12 7 -27 12 -31 11 -5
-1 -6 2 -2 8 3 5 -1 13 -9 16 -9 3 -16 15 -16 25 0 18 -9 19 -140 19 l-140 0
0 -25z m100 -36 c0 -6 -4 -7 -10 -4 -5 3 -10 11 -10 16 0 6 5 7 10 4 6 -3 10
-11 10 -16z"/>
<path d="M2500 1669 c0 -5 5 -7 10 -4 6 3 10 8 10 11 0 2 -4 4 -10 4 -5 0 -10
-5 -10 -11z"/>
<path d="M2501 1634 c0 -11 3 -14 6 -6 3 7 2 16 -1 19 -3 4 -6 -2 -5 -13z"/>
<path d="M2491 1574 c0 -11 3 -14 6 -6 3 7 2 16 -1 19 -3 4 -6 -2 -5 -13z"/>
<path d="M1975 1430 c-3 -6 1 -13 10 -16 9 -4 14 -13 11 -21 -3 -8 -2 -12 3
-9 5 3 11 14 14 25 3 15 0 18 -17 14 -17 -4 -18 -3 -6 6 9 7 10 11 3 11 -6 0
-15 -5 -18 -10z"/>
<path d="M2416 1407 c3 -10 9 -15 12 -12 3 3 0 11 -7 18 -10 9 -11 8 -5 -6z"/>
<path d="M124 1312 c-5 -18 -9 -21 -16 -10 -6 8 -8 -37 -5 -117 3 -120 5 -130
23 -130 10 0 22 9 26 20 6 19 6 19 7 -2 1 -16 6 -20 21 -16 11 3 20 12 20 19
0 8 5 13 11 11 18 -3 21 83 3 90 -8 3 -14 11 -14 19 0 20 -20 17 -21 -3 -1
-10 -5 5 -10 33 -4 28 -15 64 -24 80 -15 29 -15 29 -21 6z"/>
<path d="M1181 1254 c0 -11 3 -14 6 -6 3 7 2 16 -1 19 -3 4 -6 -2 -5 -13z"/>
<path d="M2540 1234 c0 -6 7 -19 15 -30 8 -10 14 -14 14 -9 0 6 -6 19 -14 29
-8 11 -15 15 -15 10z"/>
<path d="M31 1076 c-8 -9 -10 -23 -6 -33 6 -16 8 -15 16 6 13 32 7 47 -10 27z"/>
<path d="M348 999 c-29 -16 -24 -84 7 -111 25 -22 36 -78 15 -78 -5 0 -10 9
-10 20 0 11 -7 20 -16 20 -21 0 -15 -49 9 -64 28 -18 52 4 55 53 3 35 -1 45
-22 62 -26 20 -38 79 -16 79 6 0 10 -9 10 -20 0 -11 7 -20 15 -20 22 0 19 47
-4 60 -23 12 -22 12 -43 -1z"/>
<path d="M150 889 c0 -84 3 -110 13 -107 7 3 13 26 15 56 4 69 22 67 22 -3 0
-42 4 -55 15 -55 12 0 14 20 14 110 l0 110 -39 0 -40 0 0 -111z m50 55 c0 -13
-4 -24 -10 -24 -5 0 -10 14 -10 31 0 17 4 28 10 24 6 -3 10 -17 10 -31z"/>
<path d="M250 890 l0 -110 35 0 c24 0 35 5 35 15 0 8 -9 15 -20 15 -17 0 -20
7 -20 40 0 33 3 40 20 40 11 0 20 7 20 15 0 8 -9 15 -20 15 -15 0 -20 7 -20
25 0 18 5 25 20 25 11 0 20 7 20 15 0 10 -11 15 -35 15 l-35 0 0 -110z"/>
<path d="M430 890 c0 -91 3 -110 15 -110 12 0 15 19 15 110 0 91 -3 110 -15
110 -12 0 -15 -19 -15 -110z"/>
<path d="M480 891 c0 -109 0 -111 23 -111 50 0 58 17 55 120 l-3 95 -37 3 -38
3 0 -110z m50 -2 c0 -46 -4 -79 -10 -79 -6 0 -10 35 -10 86 0 54 4 83 10 79 6
-3 10 -42 10 -86z"/>
<path d="M580 890 l0 -110 30 2 c33 2 51 28 20 28 -17 0 -20 7 -20 40 0 33 3
40 20 40 11 0 20 5 20 11 0 6 -9 13 -20 16 -13 3 -20 14 -20 29 0 17 6 24 20
24 11 0 20 7 20 15 0 10 -11 15 -35 15 l-35 0 0 -110z"/>
<path d="M666 922 c3 -130 4 -142 14 -142 5 0 10 28 12 63 3 64 5 64 33 -15
12 -34 20 -45 31 -41 21 8 19 213 -2 213 -9 0 -14 -18 -16 -62 l-3 -63 -20 62
c-13 40 -25 63 -35 63 -12 0 -15 -15 -14 -78z"/>
<path d="M780 985 c0 -8 5 -15 10 -15 6 0 10 -38 10 -93 0 -77 3 -94 15 -94
12 0 15 17 15 94 0 55 4 93 10 93 6 0 10 7 10 15 0 10 -11 15 -35 15 -24 0
-35 -5 -35 -15z"/>
<path d="M911 904 c-1 -61 2 -101 10 -110 16 -19 59 -18 59 1 0 8 -9 15 -20
15 -17 0 -20 7 -20 40 0 33 3 40 20 40 11 0 20 7 20 15 0 8 -9 15 -20 15 -15
0 -20 7 -20 25 0 18 5 25 20 25 11 0 20 7 20 15 0 10 -10 15 -34 15 l-34 0 -1
-96z"/>
<path d="M1006 916 c15 -92 29 -136 43 -136 5 0 16 42 26 93 9 50 18 100 21
110 4 11 0 17 -10 17 -16 0 -18 -7 -34 -95 l-8 -50 -8 55 c-10 75 -15 90 -30
90 -11 0 -11 -15 0 -84z"/>
<path d="M1110 890 c0 -91 3 -110 15 -110 12 0 15 19 15 110 0 91 -3 110 -15
110 -12 0 -15 -19 -15 -110z"/>
<path d="M1160 889 c0 -111 0 -111 23 -105 12 3 28 6 35 6 6 0 12 5 12 10 0 6
-9 10 -20 10 -11 0 -21 6 -21 13 -1 11 -3 45 -8 145 0 17 -5 32 -11 32 -6 0
-10 -44 -10 -111z"/>
<path d="M191 680 c-6 -30 -16 -57 -22 -61 -12 -7 37 -69 54 -69 7 0 18 12 24
27 11 22 10 29 -3 45 -9 9 -17 35 -18 57 0 22 -4 37 -7 35 -4 -2 -9 2 -12 8
-2 7 -9 -12 -16 -42z"/>
<path d="M0 696 c0 -15 67 -108 82 -114 4 -2 8 -9 8 -17 0 -7 7 -19 17 -26 9
-8 29 -34 44 -59 16 -25 29 -40 29 -35 1 14 29 -37 30 -52 0 -7 -9 -13 -20
-13 -20 0 -44 21 -95 83 -16 21 -32 37 -36 37 -3 0 -10 -17 -15 -37 -10 -37
-10 -37 -15 -11 -4 15 -2 25 2 22 18 -10 9 64 -10 87 -19 24 -19 21 -20 -269
l-2 -292 200 0 c150 0 201 3 204 13 4 9 6 9 6 0 1 -8 16 -13 41 -13 33 0 38 3
33 18 -3 9 -12 24 -18 32 -7 8 -15 26 -19 40 -3 14 -3 19 0 12 3 -6 11 -9 17
-5 6 4 8 0 4 -10 -5 -13 -1 -17 19 -17 18 0 24 5 22 18 -2 11 3 17 14 16 10
-1 14 4 11 13 -3 8 -11 12 -18 9 -8 -3 -12 5 -12 20 -1 13 3 21 8 18 5 -3 9 1
9 9 0 8 -7 17 -15 21 -15 5 -20 -8 -17 -46 1 -10 -3 -18 -8 -18 -6 0 -10 10
-11 23 0 21 -1 21 -10 2 -7 -15 -8 -8 -4 23 4 28 2 41 -5 37 -5 -3 -10 1 -10
10 0 11 -5 15 -14 12 -9 -4 -13 -1 -10 6 2 7 -5 22 -16 34 -11 12 -20 28 -20
35 0 9 -3 9 -10 -2 -7 -11 -10 -7 -10 19 0 42 -11 34 -21 -16 -5 -29 -7 -20
-6 37 1 44 -2 75 -8 75 -5 0 -9 -10 -7 -22 2 -20 -2 -23 -32 -23 -24 0 -36 5
-40 18 -3 9 -18 31 -33 48 -42 48 -60 70 -80 101 -9 15 -20 30 -23 33 -3 3
-28 33 -54 68 -27 34 -51 62 -52 62 -2 0 -4 -6 -4 -14z m235 -366 c-4 -23 -9
-39 -12 -36 -3 2 -2 23 2 46 4 23 9 39 12 36 3 -2 2 -23 -2 -46z m98 -75 c4
-8 2 -17 -3 -20 -6 -4 -10 3 -10 14 0 25 6 27 13 6z m77 -110 c0 -3 -9 0 -20
7 -11 7 -20 18 -20 25 0 7 -4 13 -10 13 -5 0 -10 10 -10 22 0 17 5 13 30 -20
17 -23 30 -44 30 -47z m-103 -17 c-3 -8 -6 -5 -6 6 -1 11 2 17 5 13 3 -3 4
-12 1 -19z m-80 -70 c-3 -8 -6 -5 -6 6 -1 11 2 17 5 13 3 -3 4 -12 1 -19z"/>
<path d="M407 694 c3 -9 9 -12 12 -7 3 4 10 11 15 16 5 4 0 7 -12 7 -15 0 -20
-4 -15 -16z"/>
<path d="M493 691 c1 -14 9 -26 17 -28 10 -3 11 -2 4 4 -7 4 -14 17 -17 28 -5
16 -5 15 -4 -4z"/>
<path d="M604 702 c12 -19 -3 -35 -20 -21 -24 20 -15 4 10 -19 l25 -21 -1 30
c-1 16 -6 32 -11 36 -6 3 -7 1 -3 -5z"/>
<path d="M833 691 c1 -14 9 -26 17 -28 10 -3 11 -2 4 4 -7 4 -14 17 -17 28 -5
16 -5 15 -4 -4z"/>
<path d="M918 703 c6 -2 18 -2 25 0 6 3 1 5 -13 5 -14 0 -19 -2 -12 -5z"/>
<path d="M962 685 c0 -16 2 -22 5 -12 2 9 2 23 0 30 -3 6 -5 -1 -5 -18z"/>
<path d="M687 677 c-3 -8 1 -14 8 -14 7 0 11 6 8 14 -3 7 -6 13 -8 13 -2 0 -5
-6 -8 -13z"/>
<path d="M1001 664 c0 -11 3 -14 6 -6 3 7 2 16 -1 19 -3 4 -6 -2 -5 -13z"/>
<path d="M386 608 c-21 -98 -23 -123 -14 -155 5 -20 7 -50 4 -67 -4 -24 0 -37
19 -58 13 -16 26 -28 28 -28 11 0 12 72 2 77 -8 3 -11 34 -9 101 1 55 -2 102
-8 109 -6 7 -8 20 -4 28 3 8 1 15 -4 15 -5 0 -12 -10 -14 -22z"/>
<path d="M305 610 c-3 -5 1 -10 9 -10 9 0 16 5 16 10 0 6 -4 10 -9 10 -6 0
-13 -4 -16 -10z"/>
<path d="M322 568 c-15 -15 -15 -33 1 -46 9 -8 12 -2 13 24 0 19 0 34 -1 34 0
0 -6 -5 -13 -12z"/>
<path d="M502 490 c0 -14 2 -19 5 -12 2 6 2 18 0 25 -3 6 -5 1 -5 -13z"/>
<path d="M541 482 c-9 -20 -10 -46 -6 -74 9 -51 10 -85 4 -117 -2 -14 1 -26 9
-28 6 -3 12 4 13 14 0 16 1 16 9 -2 5 -11 9 -14 9 -7 1 18 2 19 11 52 6 21 4
38 -5 57 -10 19 -11 31 -3 40 12 15 5 49 -15 77 -13 17 -14 17 -26 -12z m16
-74 c-3 -7 -5 -2 -5 12 0 14 2 19 5 13 2 -7 2 -19 0 -25z"/>
<path d="M499 335 c-6 -30 -3 -115 4 -115 4 0 7 3 8 8 1 14 7 40 13 59 3 10
-1 28 -9 39 -8 10 -15 15 -16 9z"/>
<path d="M540 226 c0 -11 -5 -15 -12 -10 -7 4 -5 -2 5 -13 9 -11 17 -26 17
-33 0 -22 11 -3 14 24 2 14 -3 31 -10 37 -11 9 -14 8 -14 -5z"/>
<path d="M541 134 c0 -11 3 -14 6 -6 3 7 2 16 -1 19 -3 4 -6 -2 -5 -13z"/>
<path d="M1891 84 c0 -11 3 -14 6 -6 3 7 2 16 -1 19 -3 4 -6 -2 -5 -13z"/>
<path d="M1958 93 c7 -3 16 -2 19 1 4 3 -2 6 -13 5 -11 0 -14 -3 -6 -6z"/>
<path d="M1870 50 c0 -5 7 -7 15 -4 8 4 15 8 15 10 0 2 -7 4 -15 4 -8 0 -15
-4 -15 -10z"/>
</g>
</svg>
